<svg width="131" height="119" viewBox="0 0 131 119" fill="none" xmlns="http://www.w3.org/2000/svg">
<path d="M29 87.5H113C119.904 87.5 125.5 93.0964 125.5 100C125.5 106.904 119.904 112.5 113 112.5H29C22.0964 112.5 16.5 106.904 16.5 100C16.5 93.0964 22.0964 87.5 29 87.5Z" fill="url(#paint0_linear_3_5)" fill-opacity="0.7" stroke="#8ACB8F"/>
<path d="M90.1639 12C106.642 12 120 23.9573 120 38.7073C120 53.4574 120 52 99.1147 69.439C95.8162 71.8659 90.1639 74.9268 90.1639 74.9268L71.4098 87C71.4098 87 58.6346 79.3265 48.5 74.9268C43.3757 72.7023 38 69.439 38 69.439C18.5 55.5 16 52.9146 16 38.7073C16 24.5 29.3581 12 45.8361 12C54.6326 12 62.5393 15.4081 68 20.8291C73.4607 15.4081 81.3674 12 90.1639 12Z" fill="url(#paint1_linear_3_5)" stroke="#8ACB8F"/>
<path d="M43.86 94.575V95.97H41.085V105H39.375V95.97H36.585V94.575H43.86ZM47.3018 97.935C47.5518 97.515 47.8818 97.19 48.2918 96.96C48.7118 96.72 49.2068 96.6 49.7768 96.6V98.37H49.3418C48.6718 98.37 48.1618 98.54 47.8118 98.88C47.4718 99.22 47.3018 99.81 47.3018 100.65V105H45.5918V96.735H47.3018V97.935ZM58.8336 96.735V105H57.1236V104.025C56.8536 104.365 56.4986 104.635 56.0586 104.835C55.6286 105.025 55.1686 105.12 54.6786 105.12C54.0286 105.12 53.4436 104.985 52.9236 104.715C52.4136 104.445 52.0086 104.045 51.7086 103.515C51.4186 102.985 51.2736 102.345 51.2736 101.595V96.735H52.9686V101.34C52.9686 102.08 53.1536 102.65 53.5236 103.05C53.8936 103.44 54.3986 103.635 55.0386 103.635C55.6786 103.635 56.1836 103.44 56.5536 103.05C56.9336 102.65 57.1236 102.08 57.1236 101.34V96.735H58.8336ZM64.0898 105.135C63.4398 105.135 62.8548 105.02 62.3348 104.79C61.8248 104.55 61.4198 104.23 61.1198 103.83C60.8198 103.42 60.6598 102.965 60.6398 102.465H62.4098C62.4398 102.815 62.6048 103.11 62.9048 103.35C63.2148 103.58 63.5998 103.695 64.0598 103.695C64.5398 103.695 64.9098 103.605 65.1698 103.425C65.4398 103.235 65.5748 102.995 65.5748 102.705C65.5748 102.395 65.4248 102.165 65.1248 102.015C64.8348 101.865 64.3698 101.7 63.7298 101.52C63.1098 101.35 62.6048 101.185 62.2148 101.025C61.8248 100.865 61.4848 100.62 61.1948 100.29C60.9148 99.96 60.7748 99.525 60.7748 98.985C60.7748 98.545 60.9048 98.145 61.1648 97.785C61.4248 97.415 61.7948 97.125 62.2748 96.915C62.7648 96.705 63.3248 96.6 63.9548 96.6C64.8948 96.6 65.6498 96.84 66.2198 97.32C66.7998 97.79 67.1098 98.435 67.1498 99.255H65.4398C65.4098 98.885 65.2598 98.59 64.9898 98.37C64.7198 98.15 64.3548 98.04 63.8948 98.04C63.4448 98.04 63.0998 98.125 62.8598 98.295C62.6198 98.465 62.4998 98.69 62.4998 98.97C62.4998 99.19 62.5798 99.375 62.7398 99.525C62.8998 99.675 63.0948 99.795 63.3248 99.885C63.5548 99.965 63.8948 100.07 64.3448 100.2C64.9448 100.36 65.4348 100.525 65.8148 100.695C66.2048 100.855 66.5398 101.095 66.8198 101.415C67.0998 101.735 67.2448 102.16 67.2548 102.69C67.2548 103.16 67.1248 103.58 66.8648 103.95C66.6048 104.32 66.2348 104.61 65.7548 104.82C65.2848 105.03 64.7298 105.135 64.0898 105.135ZM71.0975 98.13V102.705C71.0975 103.015 71.1675 103.24 71.3075 103.38C71.4575 103.51 71.7075 103.575 72.0575 103.575H73.1075V105H71.7575C70.9875 105 70.3975 104.82 69.9875 104.46C69.5775 104.1 69.3725 103.515 69.3725 102.705V98.13H68.3975V96.735H69.3725V94.68H71.0975V96.735H73.1075V98.13H71.0975ZM80.9686 102.87H76.6036L75.8536 105H74.0686L77.8036 94.56H79.7836L83.5186 105H81.7186L80.9686 102.87ZM80.4886 101.475L78.7936 96.63L77.0836 101.475H80.4886ZM86.8526 97.95C87.1426 97.57 87.5376 97.25 88.0376 96.99C88.5376 96.73 89.1026 96.6 89.7326 96.6C90.4526 96.6 91.1076 96.78 91.6976 97.14C92.2976 97.49 92.7676 97.985 93.1076 98.625C93.4476 99.265 93.6176 100 93.6176 100.83C93.6176 101.66 93.4476 102.405 93.1076 103.065C92.7676 103.715 92.2976 104.225 91.6976 104.595C91.1076 104.955 90.4526 105.135 89.7326 105.135C89.1026 105.135 88.5426 105.01 88.0526 104.76C87.5626 104.5 87.1626 104.18 86.8526 103.8V108.93H85.1426V96.735H86.8526V97.95ZM91.8776 100.83C91.8776 100.26 91.7576 99.77 91.5176 99.36C91.2876 98.94 90.9776 98.625 90.5876 98.415C90.2076 98.195 89.7976 98.085 89.3576 98.085C88.9276 98.085 88.5176 98.195 88.1276 98.415C87.7476 98.635 87.4376 98.955 87.1976 99.375C86.9676 99.795 86.8526 100.29 86.8526 100.86C86.8526 101.43 86.9676 101.93 87.1976 102.36C87.4376 102.78 87.7476 103.1 88.1276 103.32C88.5176 103.54 88.9276 103.65 89.3576 103.65C89.7976 103.65 90.2076 103.54 90.5876 103.32C90.9776 103.09 91.2876 102.76 91.5176 102.33C91.7576 101.9 91.8776 101.4 91.8776 100.83ZM97.0186 97.95C97.3086 97.57 97.7036 97.25 98.2036 96.99C98.7036 96.73 99.2686 96.6 99.8986 96.6C100.619 96.6 101.274 96.78 101.864 97.14C102.464 97.49 102.934 97.985 103.274 98.625C103.614 99.265 103.784 100 103.784 100.83C103.784 101.66 103.614 102.405 103.274 103.065C102.934 103.715 102.464 104.225 101.864 104.595C101.274 104.955 100.619 105.135 99.8986 105.135C99.2686 105.135 98.7086 105.01 98.2186 104.76C97.7286 104.5 97.3286 104.18 97.0186 103.8V108.93H95.3086V96.735H97.0186V97.95ZM102.044 100.83C102.044 100.26 101.924 99.77 101.684 99.36C101.454 98.94 101.144 98.625 100.754 98.415C100.374 98.195 99.9636 98.085 99.5236 98.085C99.0936 98.085 98.6836 98.195 98.2936 98.415C97.9136 98.635 97.6036 98.955 97.3636 99.375C97.1336 99.795 97.0186 100.29 97.0186 100.86C97.0186 101.43 97.1336 101.93 97.3636 102.36C97.6036 102.78 97.9136 103.1 98.2936 103.32C98.6836 103.54 99.0936 103.65 99.5236 103.65C99.9636 103.65 100.374 103.54 100.754 103.32C101.144 103.09 101.454 102.76 101.684 102.33C101.924 101.9 102.044 101.4 102.044 100.83Z" fill="#4B5563"/>
<defs>
<linearGradient id="paint0_linear_3_5" x1="16" y1="113" x2="126" y2="113" gradientUnits="userSpaceOnUse">
<stop stop-color="#FFB38A"/>
<stop offset="1" stop-color="#9FE6A0"/>
</linearGradient>
<linearGradient id="paint1_linear_3_5" x1="63.7067" y1="13.5" x2="63.7067" y2="88.5" gradientUnits="userSpaceOnUse">
<stop stop-color="#FFB38A"/>
<stop offset="1" stop-color="#9FE6A0"/>
</linearGradient>
</defs>
</svg>
